<svg xmlns="http://www.w3.org/2000/svg" xmlns:xlink="http://www.w3.org/1999/xlink" width="800" height="542.75"><rect width="800" height="542.75" rx="0" ry="0" class="a"/><svg height="542.75" viewBox="0 0 80 54.275" width="800" xmlns="http://www.w3.org/2000/svg" xmlns:xlink="http://www.w3.org/1999/xlink"><style>@keyframes i{0%{transform:translateX(0)}4%{transform:translateX(-160px)}4.5%{transform:translateX(-320px)}31.9%{transform:translateX(-400px)}33.7%{transform:translateX(-480px)}33.9%{transform:translateX(-560px)}35.8%{transform:translateX(-640px)}42.8%{transform:translateX(-880px)}42.9%{transform:translateX(-1120px)}43.6%{transform:translateX(-1280px)}51.9%{transform:translateX(-1360px)}53.9%{transform:translateX(-1440px)}54.8%{transform:translateX(-1520px)}56.8%{transform:translateX(-1600px)}61%{transform:translateX(-1680px)}62.3%{transform:translateX(-1760px)}64%{transform:translateX(-1840px)}64.4%{transform:translateX(-1920px)}64.9%{transform:translateX(-2000px)}67.3%{transform:translateX(-2480px)}68.1%{transform:translateX(-2640px)}74.4%{transform:translateX(-2720px)}78.2%{transform:translateX(-2800px)}80.6%{transform:translateX(-2880px)}83.8%{transform:translateX(-2960px)}to{transform:translateX(-3200px)}}.a{fill:#282d35}.c,.d{fill:#a8cc8c;font-weight:700}.d{fill:#66c2cd}.e{fill:#b9c0cb}.f{fill:#e88388;font-weight:700}</style><g font-size="1.67" font-family="Monaco,Consolas,Menlo,'Bitstream Vera Sans Mono','Powerline Symbols',monospace"><defs><symbol id="1"><text y="1.67" class="c">➜</text><text x="3.006" y="1.67" class="d">~</text></symbol><symbol id="2"><text y="1.67" class="c">➜</text><text x="3.006" y="1.67" class="d">~</text><text x="5.01" y="1.67" class="e">fasf</text></symbol><symbol id="3"><text y="1.67" class="e">zsh:</text><text x="5.01" y="1.67" class="e">command</text><text x="13.026" y="1.67" class="e">not</text><text x="17.034" y="1.67" class="e">found:</text><text x="24.048" y="1.67" class="e">fasf</text></symbol><symbol id="4"><text y="1.67" class="f">➜</text><text x="3.006" y="1.67" class="d">~</text></symbol><symbol id="5"><text y="1.67" class="f">➜</text><text x="3.006" y="1.67" class="d">~</text><text x="5.01" y="1.67" class="e">sfadsfasf</text></symbol><symbol id="6"><text y="1.67" class="e">zsh:</text><text x="5.01" y="1.67" class="e">command</text><text x="13.026" y="1.67" class="e">not</text><text x="17.034" y="1.67" class="e">found:</text><text x="24.048" y="1.67" class="e">sfadsfasf</text></symbol><symbol id="7"><text y="1.67" class="f">➜</text><text x="3.006" y="1.67" class="d">~</text><text x="5.01" y="1.67" class="e">exit</text></symbol><symbol id="a"><path fill="transparent" d="M0 0h80v25H0z"/></symbol><symbol id="b"><path fill="#6f7683" d="M0 0h1.102v2.171H0z"/></symbol></defs><path class="a" d="M0 0h80v54.275H0z"/><g style="animation-duration:6.217459s;animation-iteration-count:infinite;animation-name:i;animation-timing-function:steps(1,end)"><svg width="3280"><svg><use xlink:href="#a"/><use xlink:href="#b" x="-.004"/></svg><svg x="80"><use xlink:href="#a"/><use xlink:href="#b" x="-.004"/></svg><svg x="160"><use xlink:href="#a"/><use xlink:href="#b" x="-.004"/></svg><svg x="240"><use xlink:href="#a"/><use xlink:href="#b" x="4.996"/><use xlink:href="#1"/></svg><svg x="320"><use xlink:href="#a"/><use xlink:href="#b" x="4.996"/><use xlink:href="#1"/></svg><svg x="400"><use xlink:href="#a"/><use xlink:href="#b" x="5.996"/><text y="1.67" class="c">➜</text><text x="3.006" y="1.67" class="d">~</text><text x="5.01" y="1.67" class="e">f</text></svg><svg x="480"><use xlink:href="#a"/><use xlink:href="#b" x="6.996"/><text y="1.67" class="c">➜</text><text x="3.006" y="1.67" class="d">~</text><text x="5.01" y="1.67" class="e">fa</text></svg><svg x="560"><use xlink:href="#a"/><use xlink:href="#b" x="7.996"/><text y="1.67" class="c">➜</text><text x="3.006" y="1.67" class="d">~</text><text x="5.01" y="1.67" class="e">fas</text></svg><svg x="640"><use xlink:href="#a"/><use xlink:href="#b" x="8.996"/><use xlink:href="#2"/></svg><svg x="720"><use xlink:href="#a"/><use xlink:href="#b" x="8.996"/><use xlink:href="#2"/></svg><svg x="800"><use xlink:href="#a"/><use xlink:href="#b" x="-.004" y="2.146"/><use xlink:href="#2"/></svg><svg x="880"><use xlink:href="#a"/><use xlink:href="#b" x="-.004" y="2.146"/><use xlink:href="#2"/></svg><svg x="960"><use xlink:href="#a"/><use xlink:href="#b" x="-.004" y="4.317"/><use xlink:href="#2"/><use xlink:href="#3" y="2.171"/></svg><svg x="1040"><use xlink:href="#a"/><use xlink:href="#b" x="-.004" y="4.317"/><use xlink:href="#2"/><use xlink:href="#3" y="2.171"/></svg><svg x="1120"><use xlink:href="#a"/><use xlink:href="#b" x="-.004" y="4.317"/><use xlink:href="#2"/><use xlink:href="#3" y="2.171"/></svg><svg x="1200"><use xlink:href="#a"/><use xlink:href="#b" x="4.996" y="4.317"/><use xlink:href="#2"/><use xlink:href="#3" y="2.171"/><use xlink:href="#4" y="4.342"/></svg><svg x="1280"><use xlink:href="#a"/><use xlink:href="#b" x="4.996" y="4.317"/><use xlink:href="#2"/><use xlink:href="#3" y="2.171"/><use xlink:href="#4" y="4.342"/></svg><svg x="1360"><use xlink:href="#a"/><use xlink:href="#b" x="5.996" y="4.317"/><use xlink:href="#2"/><use xlink:href="#3" y="2.171"/><text y="6.012" class="f">➜</text><text x="3.006" y="6.012" class="d">~</text><text x="5.01" y="6.012" class="e">s</text></svg><svg x="1440"><use xlink:href="#a"/><use xlink:href="#b" x="6.996" y="4.317"/><use xlink:href="#2"/><use xlink:href="#3" y="2.171"/><text y="6.012" class="f">➜</text><text x="3.006" y="6.012" class="d">~</text><text x="5.01" y="6.012" class="e">sf</text></svg><svg x="1520"><use xlink:href="#a"/><use xlink:href="#b" x="7.996" y="4.317"/><use xlink:href="#2"/><use xlink:href="#3" y="2.171"/><text y="6.012" class="f">➜</text><text x="3.006" y="6.012" class="d">~</text><text x="5.01" y="6.012" class="e">sfa</text></svg><svg x="1600"><use xlink:href="#a"/><use xlink:href="#b" x="8.996" y="4.317"/><use xlink:href="#2"/><use xlink:href="#3" y="2.171"/><text y="6.012" class="f">➜</text><text x="3.006" y="6.012" class="d">~</text><text x="5.01" y="6.012" class="e">sfad</text></svg><svg x="1680"><use xlink:href="#a"/><use xlink:href="#b" x="9.996" y="4.317"/><use xlink:href="#2"/><use xlink:href="#3" y="2.171"/><text y="6.012" class="f">➜</text><text x="3.006" y="6.012" class="d">~</text><text x="5.01" y="6.012" class="e">sfads</text></svg><svg x="1760"><use xlink:href="#a"/><use xlink:href="#b" x="10.996" y="4.317"/><use xlink:href="#2"/><use xlink:href="#3" y="2.171"/><text y="6.012" class="f">➜</text><text x="3.006" y="6.012" class="d">~</text><text x="5.01" y="6.012" class="e">sfadsf</text></svg><svg x="1840"><use xlink:href="#a"/><use xlink:href="#b" x="11.996" y="4.317"/><use xlink:href="#2"/><use xlink:href="#3" y="2.171"/><text y="6.012" class="f">➜</text><text x="3.006" y="6.012" class="d">~</text><text x="5.01" y="6.012" class="e">sfadsfa</text></svg><svg x="1920"><use xlink:href="#a"/><use xlink:href="#b" x="12.996" y="4.317"/><use xlink:href="#2"/><use xlink:href="#3" y="2.171"/><text y="6.012" class="f">➜</text><text x="3.006" y="6.012" class="d">~</text><text x="5.01" y="6.012" class="e">sfadsfas</text></svg><svg x="2000"><use xlink:href="#a"/><use xlink:href="#b" x="13.996" y="4.317"/><use xlink:href="#2"/><use xlink:href="#3" y="2.171"/><use xlink:href="#5" y="4.342"/></svg><svg x="2080"><use xlink:href="#a"/><use xlink:href="#b" x="-.004" y="6.488"/><use xlink:href="#2"/><use xlink:href="#3" y="2.171"/><use xlink:href="#5" y="4.342"/></svg><svg x="2160"><use xlink:href="#a"/><use xlink:href="#b" x="-.004" y="6.488"/><use xlink:href="#2"/><use xlink:href="#3" y="2.171"/><use xlink:href="#5" y="4.342"/></svg><svg x="2240"><use xlink:href="#a"/><use xlink:href="#b" x="-.004" y="8.659"/><use xlink:href="#2"/><use xlink:href="#3" y="2.171"/><use xlink:href="#5" y="4.342"/><use xlink:href="#6" y="6.513"/></svg><svg x="2320"><use xlink:href="#a"/><use xlink:href="#b" x="-.004" y="8.659"/><use xlink:href="#2"/><use xlink:href="#3" y="2.171"/><use xlink:href="#5" y="4.342"/><use xlink:href="#6" y="6.513"/></svg><svg x="2400"><use xlink:href="#a"/><use xlink:href="#b" x="-.004" y="8.659"/><use xlink:href="#2"/><use xlink:href="#3" y="2.171"/><use xlink:href="#5" y="4.342"/><use xlink:href="#6" y="6.513"/></svg><svg x="2480"><use xlink:href="#a"/><use xlink:href="#b" x="-.004" y="8.659"/><use xlink:href="#2"/><use xlink:href="#3" y="2.171"/><use xlink:href="#5" y="4.342"/><use xlink:href="#6" y="6.513"/></svg><svg x="2560"><use xlink:href="#a"/><use xlink:href="#b" x="4.996" y="8.659"/><use xlink:href="#2"/><use xlink:href="#3" y="2.171"/><use xlink:href="#5" y="4.342"/><use xlink:href="#6" y="6.513"/><use xlink:href="#4" y="8.684"/></svg><svg x="2640"><use xlink:href="#a"/><use xlink:href="#b" x="4.996" y="8.659"/><use xlink:href="#2"/><use xlink:href="#3" y="2.171"/><use xlink:href="#5" y="4.342"/><use xlink:href="#6" y="6.513"/><use xlink:href="#4" y="8.684"/></svg><svg x="2720"><use xlink:href="#a"/><use xlink:href="#b" x="5.996" y="8.659"/><use xlink:href="#2"/><use xlink:href="#3" y="2.171"/><use xlink:href="#5" y="4.342"/><use xlink:href="#6" y="6.513"/><text y="10.354" class="f">➜</text><text x="3.006" y="10.354" class="d">~</text><text x="5.01" y="10.354" class="e">e</text></svg><svg x="2800"><use xlink:href="#a"/><use xlink:href="#b" x="6.996" y="8.659"/><use xlink:href="#2"/><use xlink:href="#3" y="2.171"/><use xlink:href="#5" y="4.342"/><use xlink:href="#6" y="6.513"/><text y="10.354" class="f">➜</text><text x="3.006" y="10.354" class="d">~</text><text x="5.01" y="10.354" class="e">ex</text></svg><svg x="2880"><use xlink:href="#a"/><use xlink:href="#b" x="7.996" y="8.659"/><use xlink:href="#2"/><use xlink:href="#3" y="2.171"/><use xlink:href="#5" y="4.342"/><use xlink:href="#6" y="6.513"/><text y="10.354" class="f">➜</text><text x="3.006" y="10.354" class="d">~</text><text x="5.01" y="10.354" class="e">exi</text></svg><svg x="2960"><use xlink:href="#a"/><use xlink:href="#b" x="8.996" y="8.659"/><use xlink:href="#2"/><use xlink:href="#3" y="2.171"/><use xlink:href="#5" y="4.342"/><use xlink:href="#6" y="6.513"/><use xlink:href="#7" y="8.684"/></svg><svg x="3040"><use xlink:href="#a"/><use xlink:href="#b" x="8.996" y="8.659"/><use xlink:href="#2"/><use xlink:href="#3" y="2.171"/><use xlink:href="#5" y="4.342"/><use xlink:href="#6" y="6.513"/><use xlink:href="#7" y="8.684"/></svg><svg x="3120"><use xlink:href="#a"/><use xlink:href="#b" x="-.004" y="10.83"/><use xlink:href="#2"/><use xlink:href="#3" y="2.171"/><use xlink:href="#5" y="4.342"/><use xlink:href="#6" y="6.513"/><use xlink:href="#7" y="8.684"/></svg><svg x="3200"><use xlink:href="#a"/><use xlink:href="#b" x="-.004" y="10.83"/><use xlink:href="#2"/><use xlink:href="#3" y="2.171"/><use xlink:href="#5" y="4.342"/><use xlink:href="#6" y="6.513"/><use xlink:href="#7" y="8.684"/></svg></svg></g></g></svg></svg>